<svg data-name="Layer 1" xmlns="http://www.w3.org/2000/svg" viewBox="0 0 410 340.42"><path d="M334.32 216.92L210.12 1.8a3.56 3.56 0 0 0-6.43 3l58.63 165.39a3.56 3.56 0 0 1-2.41 4.62l-43.1 11.86a3.56 3.56 0 0 0 .25 6.91z" fill="#3a3a3a"/><path d="M153.09 182.79l13.61-45.93a2.89 2.89 0 0 0-5-2.76L83 229.09h251.63c3.49 0 4-5.15.56-5.84l-179.91-36.71a3 3 0 0 1-2.19-3.75z"/><path d="M197.65 5L73 220.9a3.41 3.41 0 0 0 5.55 3.91L195.14 87.26a3.41 3.41 0 0 1 5.11-.1l32 34.95a3.41 3.41 0 0 0 5.72-3.44z" fill="#6b6b6b"/><path d="M53.78 320.44h7.71a1 1 0 0 1 1 1v17.95a1 1 0 0 1-1 1h-49q-5.23 0-8.87-5.38A22.56 22.56 0 0 1 0 322.09v-36.94a22.56 22.56 0 0 1 3.64-13q3.64-5.37 8.87-5.38l37.48.13 11.48-.12a1 1 0 0 1 1 1v17.41a1 1 0 0 1-1 1H18.34a7.34 7.34 0 0 0-5.89 2.91 11.23 11.23 0 0 0-2.52 7v14.17a11.13 11.13 0 0 0 2.38 7.08 7.29 7.29 0 0 0 6 3h35.5zM69.6 322.09v-36.94a22.56 22.56 0 0 1 3.64-13q3.64-5.37 8.87-5.38l37.48.13q5.23 0 8.87 5.38a22.57 22.57 0 0 1 3.64 13v36.81a22.57 22.57 0 0 1-3.64 13q-3.64 5.38-8.87 5.38H82.12q-5.23 0-8.87-5.38a22.56 22.56 0 0 1-3.65-13zm52.65-12v-14.11a1.26 1.26 0 0 0 0-.16 13.09 13.09 0 0 0-2.77-6.62 7.16 7.16 0 0 0-5.83-2.91h-25.7a7.34 7.34 0 0 0-5.89 2.91 11.23 11.23 0 0 0-2.52 7v14.17a11.13 11.13 0 0 0 2.38 7.08 7.29 7.29 0 0 0 6 3H114a7.36 7.36 0 0 0 5.73-3.1 11.1 11.1 0 0 0 2.52-7.26zM177.61 312.09h-27.44a1 1 0 0 0-1 1v26.3a1 1 0 0 1-1 1h-7.88a1 1 0 0 1-1-1v-43.73a1 1 0 0 1 1-1h50.13a1 1 0 0 0 1-1v-6.29a1 1 0 0 0-1-1h-50.18a1 1 0 0 1-1-1v-17.53a1 1 0 0 1 1-1h11.49l37.48.13q5.36-.12 8.94 4.74t3.58 14.61v8.35q0 9.61-3.15 13.53a10.79 10.79 0 0 1-8 3.86 1 1 0 0 0-.86 1.44l11.33 25.51a1 1 0 0 1-.94 1.45h-8.61a1 1 0 0 1-.94-.61l-12-27.11a1 1 0 0 0-.95-.65zM243.81 340.42h-7.88a1 1 0 0 1-1-1v-52.1a1 1 0 0 0-1-1h-24a1 1 0 0 1-1-1v-17.48a1 1 0 0 1 1-1h11.49l37.48.13 11.48-.12a1 1 0 0 1 1 1v17.41a1 1 0 0 1-1 1h-24.51a1 1 0 0 0-1 1v52.13a1 1 0 0 1-1.06 1.03zM278.41 286.29v-1.14a22.56 22.56 0 0 1 3.64-13q3.64-5.37 8.87-5.38l37.48.13 11.48-.12a1 1 0 0 1 1 1v17.41a1 1 0 0 1-1 1h-61.47zm53.78 34.15h7.71a1 1 0 0 1 1 1v17.95a1 1 0 0 1-1 1h-49q-5.23 0-8.87-5.38a22.56 22.56 0 0 1-3.64-13v-26.35a1 1 0 0 1 1-1h60.51a1 1 0 0 1 1 1v15.43a1 1 0 0 1-1 1h-50.52a1 1 0 0 0-1 1v6.29a1 1 0 0 0 1 1h42.81zM371.37 312.29l-12.22 27.52a1 1 0 0 1-.94.61h-8.63a1 1 0 0 1-.95-1.44l15.23-35.34a1 1 0 0 0 0-.82l-15.21-34.57a1 1 0 0 1 .94-1.44h8.61a1 1 0 0 1 .94.61l12.22 27.52a1 1 0 0 1 .09.42v16.51a1 1 0 0 1-.08.42zm15-.2h-9a1 1 0 0 1-1-1v-14.92a1 1 0 0 1 1-1h9a1 1 0 0 0 .94-.61l12-27.11a1 1 0 0 1 .94-.61H409a1 1 0 0 1 .94 1.44l-15.21 34.57a1 1 0 0 0 0 .82l15.23 35.34a1 1 0 0 1-.95 1.44h-8.63a1 1 0 0 1-.94-.61l-12-27.11a1 1 0 0 0-1.02-.64z"/></svg>